<svg width="111" height="76" viewBox="0 0 111 76" fill="none" xmlns="http://www.w3.org/2000/svg">
<path fill-rule="evenodd" clip-rule="evenodd" d="M67.6513 48.266L92.7507 43.3109C96.7686 42.4181 99.308 42.9807 99.782 45.2358L70.9537 50.9721C70.8711 50.9889 70.7947 50.9751 70.7259 50.9277L67.5428 48.8194C67.4373 48.7506 67.3868 48.6298 67.4113 48.506C67.4358 48.3822 67.5275 48.2904 67.6513 48.266ZM26.8276 35.9448C32.7886 32.0783 39.3566 32.3275 44.7902 34.8578C48.3402 36.5105 51.028 39.8251 54.3364 41.8203L62.5113 46.4084C66.7921 48.7751 64.6226 54.8095 60.6705 53.9228L52.167 52.8174C51.1243 52.6829 50.2513 52.3526 49.3982 51.738L39.9773 44.9346C39.0799 44.2145 37.9959 45.6424 39.0417 46.3396L48.5833 53.5299C49.4318 54.1689 50.8888 54.7147 51.9422 54.86L60.4244 56.0295C63.3445 56.4362 65.8289 55.1199 66.7309 51.8848C66.7569 51.79 66.8196 51.7197 66.9114 51.683C67.0031 51.6463 67.0963 51.6524 67.1804 51.7029L69.6694 53.1782C69.7382 53.218 69.8101 53.2302 69.8881 53.2149L103.208 46.3029C110.446 44.9697 113.114 53.7882 105.538 55.6213L69.8667 66.9701C64.3536 68.7237 59.0469 69.2665 53.6194 67.2667L36.042 60.792C34.4811 60.2171 32.8299 60.2324 31.4554 61.1711L14.8367 72.5153C13.9515 73.1207 12.2361 73.4693 12.2361 71.7188V49.3484C12.2361 46.5995 12.9225 45.3076 14.1502 44.2879C17.8363 41.2271 25.3125 36.9279 26.8276 35.9448Z" fill="url(#paint0_linear_4230_55402)"/>
<g filter="url(#filter0_bi_4230_55402)">
<path d="M90.612 14.9532C90.4154 14.5953 90.1283 14.2953 89.7795 14.083L70.9117 2.55241C70.5417 2.32654 70.1165 2.20703 69.683 2.20703C69.2494 2.20703 68.8243 2.32654 68.4542 2.55241L49.5864 14.083C49.2376 14.2953 48.9505 14.5953 48.7539 14.9532L69.683 27.7456L90.612 14.9532Z" fill="url(#paint1_linear_4230_55402)"/>
</g>
<g filter="url(#filter1_bi_4230_55402)">
<path d="M48.7542 14.957C48.5597 15.3069 48.4574 15.7006 48.457 16.1009V37.0394C48.4573 37.4434 48.5613 37.8406 48.7591 38.1929C48.9569 38.5451 49.2419 38.8407 49.5867 39.0512L68.4545 50.5817C68.8244 50.8081 69.2496 50.928 69.6833 50.9284V27.7494L48.7542 14.957Z" fill="url(#paint2_linear_4230_55402)"/>
</g>
<g filter="url(#filter2_bi_4230_55402)">
<path d="M90.6127 14.957C90.8072 15.3069 90.9095 15.7006 90.9098 16.1009V37.0394C90.9096 37.4434 90.8056 37.8406 90.6078 38.1929C90.41 38.5451 90.125 38.8407 89.7801 39.0512L70.9124 50.5817C70.5424 50.8081 70.1173 50.928 69.6836 50.9284V27.7494L90.6127 14.957Z" fill="url(#paint3_linear_4230_55402)"/>
</g>
<g filter="url(#filter3_bi_4230_55402)">
<path d="M98.3964 1.83897L93.1295 1.08656C90.3154 0.68454 87.4584 0.684541 84.6442 1.08656L79.3773 1.83898C78.392 1.97973 77.6602 2.82357 77.6602 3.81887V9.19623C77.6602 16.6995 81.6806 23.6275 88.1953 27.3501C88.6238 27.595 89.1499 27.595 89.5784 27.3501C96.0931 23.6275 100.114 16.6995 100.114 9.19623V3.81887C100.114 2.82357 99.3817 1.97973 98.3964 1.83897Z" fill="url(#paint4_linear_4230_55402)"/>
<path d="M93.1154 1.18556L98.3823 1.93797C99.3183 2.07169 100.014 2.87334 100.014 3.81887V9.19623C100.014 16.6636 96.0123 23.5585 89.5288 27.2633C89.131 27.4906 88.6427 27.4906 88.2449 27.2633C81.7614 23.5585 77.7602 16.6636 77.7602 9.19623V3.81887C77.7602 2.87334 78.4554 2.07169 79.3915 1.93797L84.6584 1.18556C87.4631 0.784876 90.3106 0.784875 93.1154 1.18556Z" stroke="url(#paint5_linear_4230_55402)" stroke-opacity="0.1" stroke-width="0.2"/>
</g>
<g filter="url(#filter4_i_4230_55402)">
<path d="M88.4117 7.15103C88.5613 6.69037 89.213 6.69037 89.3627 7.15103L90.5248 10.7276C90.5917 10.9336 90.7837 11.0731 91.0003 11.0731H94.7609C95.2453 11.0731 95.4467 11.6929 95.0548 11.9776L92.0124 14.188C91.8372 14.3153 91.7639 14.541 91.8308 14.747L92.9929 18.3235C93.1426 18.7842 92.6153 19.1673 92.2235 18.8826L89.1811 16.6721C89.0058 16.5448 88.7685 16.5448 88.5933 16.6721L85.5509 18.8826C85.1591 19.1673 84.6318 18.7842 84.7815 18.3235L85.9436 14.747C86.0105 14.541 85.9372 14.3153 85.7619 14.188L82.7196 11.9776C82.3277 11.6929 82.5291 11.0731 83.0135 11.0731H86.774C86.9907 11.0731 87.1826 10.9336 87.2496 10.7276L88.4117 7.15103Z" fill="#F2D9A9"/>
</g>
<rect x="0.0136719" y="49.3438" width="14.6453" height="29.2489" rx="1" transform="rotate(-27.1208 0.0136719 49.3438)" fill="url(#paint6_linear_4230_55402)"/>
<defs>
<filter id="filter0_bi_4230_55402" x="24.7539" y="-21.793" width="89.8582" height="73.5391" filterUnits="userSpaceOnUse" color-interpolation-filters="sRGB">
<feFlood flood-opacity="0" result="BackgroundImageFix"/>
<feGaussianBlur in="BackgroundImageFix" stdDeviation="12"/>
<feComposite in2="SourceAlpha" operator="in" result="effect1_backgroundBlur_4230_55402"/>
<feBlend mode="normal" in="SourceGraphic" in2="effect1_backgroundBlur_4230_55402" result="shape"/>
<feColorMatrix in="SourceAlpha" type="matrix" values="0 0 0 0 0 0 0 0 0 0 0 0 0 0 0 0 0 0 127 0" result="hardAlpha"/>
<feOffset dy="8"/>
<feGaussianBlur stdDeviation="6"/>
<feComposite in2="hardAlpha" operator="arithmetic" k2="-1" k3="1"/>
<feColorMatrix type="matrix" values="0 0 0 0 1 0 0 0 0 1 0 0 0 0 1 0 0 0 0.15 0"/>
<feBlend mode="normal" in2="shape" result="effect2_innerShadow_4230_55402"/>
</filter>
<filter id="filter1_bi_4230_55402" x="24.457" y="-9.04297" width="69.2263" height="83.9727" filterUnits="userSpaceOnUse" color-interpolation-filters="sRGB">
<feFlood flood-opacity="0" result="BackgroundImageFix"/>
<feGaussianBlur in="BackgroundImageFix" stdDeviation="12"/>
<feComposite in2="SourceAlpha" operator="in" result="effect1_backgroundBlur_4230_55402"/>
<feBlend mode="normal" in="SourceGraphic" in2="effect1_backgroundBlur_4230_55402" result="shape"/>
<feColorMatrix in="SourceAlpha" type="matrix" values="0 0 0 0 0 0 0 0 0 0 0 0 0 0 0 0 0 0 127 0" result="hardAlpha"/>
<feOffset dy="8"/>
<feGaussianBlur stdDeviation="6"/>
<feComposite in2="hardAlpha" operator="arithmetic" k2="-1" k3="1"/>
<feColorMatrix type="matrix" values="0 0 0 0 1 0 0 0 0 1 0 0 0 0 1 0 0 0 0.15 0"/>
<feBlend mode="normal" in2="shape" result="effect2_innerShadow_4230_55402"/>
</filter>
<filter id="filter2_bi_4230_55402" x="45.6836" y="-9.04297" width="69.2263" height="83.9727" filterUnits="userSpaceOnUse" color-interpolation-filters="sRGB">
<feFlood flood-opacity="0" result="BackgroundImageFix"/>
<feGaussianBlur in="BackgroundImageFix" stdDeviation="12"/>
<feComposite in2="SourceAlpha" operator="in" result="effect1_backgroundBlur_4230_55402"/>
<feBlend mode="normal" in="SourceGraphic" in2="effect1_backgroundBlur_4230_55402" result="shape"/>
<feColorMatrix in="SourceAlpha" type="matrix" values="0 0 0 0 0 0 0 0 0 0 0 0 0 0 0 0 0 0 127 0" result="hardAlpha"/>
<feOffset dy="8"/>
<feGaussianBlur stdDeviation="6"/>
<feComposite in2="hardAlpha" operator="arithmetic" k2="-1" k3="1"/>
<feColorMatrix type="matrix" values="0 0 0 0 1 0 0 0 0 1 0 0 0 0 1 0 0 0 0.15 0"/>
<feBlend mode="normal" in2="shape" result="effect2_innerShadow_4230_55402"/>
</filter>
<filter id="filter3_bi_4230_55402" x="74.6602" y="-2.21484" width="28.4534" height="32.75" filterUnits="userSpaceOnUse" color-interpolation-filters="sRGB">
<feFlood flood-opacity="0" result="BackgroundImageFix"/>
<feGaussianBlur in="BackgroundImageFix" stdDeviation="1.5"/>
<feComposite in2="SourceAlpha" operator="in" result="effect1_backgroundBlur_4230_55402"/>
<feBlend mode="normal" in="SourceGraphic" in2="effect1_backgroundBlur_4230_55402" result="shape"/>
<feColorMatrix in="SourceAlpha" type="matrix" values="0 0 0 0 0 0 0 0 0 0 0 0 0 0 0 0 0 0 127 0" result="hardAlpha"/>
<feOffset dy="0.5"/>
<feGaussianBlur stdDeviation="1"/>
<feComposite in2="hardAlpha" operator="arithmetic" k2="-1" k3="1"/>
<feColorMatrix type="matrix" values="0 0 0 0 1 0 0 0 0 1 0 0 0 0 1 0 0 0 0.15 0"/>
<feBlend mode="normal" in2="shape" result="effect2_innerShadow_4230_55402"/>
</filter>
<filter id="filter4_i_4230_55402" x="82.5125" y="6.80469" width="12.7495" height="12.6758" filterUnits="userSpaceOnUse" color-interpolation-filters="sRGB">
<feFlood flood-opacity="0" result="BackgroundImageFix"/>
<feBlend mode="normal" in="SourceGraphic" in2="BackgroundImageFix" result="shape"/>
<feColorMatrix in="SourceAlpha" type="matrix" values="0 0 0 0 0 0 0 0 0 0 0 0 0 0 0 0 0 0 127 0" result="hardAlpha"/>
<feOffset dy="0.5"/>
<feGaussianBlur stdDeviation="0.25"/>
<feComposite in2="hardAlpha" operator="arithmetic" k2="-1" k3="1"/>
<feColorMatrix type="matrix" values="0 0 0 0 1 0 0 0 0 1 0 0 0 0 1 0 0 0 0.1 0"/>
<feBlend mode="normal" in2="shape" result="effect1_innerShadow_4230_55402"/>
</filter>
<linearGradient id="paint0_linear_4230_55402" x1="86.0774" y1="69.2085" x2="73.5519" y2="25.1544" gradientUnits="userSpaceOnUse">
<stop stop-color="#FEC583"/>
<stop offset="1" stop-color="#C5863C"/>
</linearGradient>
<linearGradient id="paint1_linear_4230_55402" x1="89.6968" y1="2.20703" x2="54.5024" y2="34.091" gradientUnits="userSpaceOnUse">
<stop stop-color="#FBD791"/>
<stop offset="0.99" stop-color="#CDA24C"/>
</linearGradient>
<linearGradient id="paint2_linear_4230_55402" x1="69.2191" y1="14.957" x2="39.849" y2="24.5364" gradientUnits="userSpaceOnUse">
<stop stop-color="#FBD791"/>
<stop offset="0.99" stop-color="#CDA24C"/>
</linearGradient>
<linearGradient id="paint3_linear_4230_55402" x1="90.4457" y1="14.957" x2="61.0756" y2="24.5364" gradientUnits="userSpaceOnUse">
<stop stop-color="#FBD791"/>
<stop offset="0.99" stop-color="#CDA24C"/>
</linearGradient>
<linearGradient id="paint4_linear_4230_55402" x1="95.9242" y1="2.9576" x2="91.3815" y2="27.2576" gradientUnits="userSpaceOnUse">
<stop stop-color="#E07132"/>
<stop offset="0.496667" stop-color="#DB9762"/>
<stop offset="1" stop-color="#D07522"/>
</linearGradient>
<linearGradient id="paint5_linear_4230_55402" x1="78.3618" y1="1.71978" x2="100.114" y2="1.71978" gradientUnits="userSpaceOnUse">
<stop stop-color="#FFC282"/>
<stop offset="1" stop-color="#FF4980"/>
</linearGradient>
<linearGradient id="paint6_linear_4230_55402" x1="14.3387" y1="49.3437" x2="-6.48617" y2="55.1073" gradientUnits="userSpaceOnUse">
<stop stop-color="#FBD791"/>
<stop offset="0.99" stop-color="#CDA24C"/>
</linearGradient>
</defs>
</svg>
